<?xml version="1.0" encoding="UTF-8" standalone="no"?>
<svg
   width="16"
   height="16"
   viewBox="0 0 16 16"
   fill="none"
   version="1.1"
   id="svg19"
   sodipodi:docname="Vector.svg"
   inkscape:version="1.1 (c68e22c387, 2021-05-23)"
   xmlns:inkscape="http://www.inkscape.org/namespaces/inkscape"
   xmlns:sodipodi="http://sodipodi.sourceforge.net/DTD/sodipodi-0.dtd"
   xmlns="http://www.w3.org/2000/svg"
   xmlns:svg="http://www.w3.org/2000/svg">
  <defs
     id="defs23" />
  <sodipodi:namedview
     id="namedview21"
     pagecolor="#ffffff"
     bordercolor="#666666"
     borderopacity="1.0"
     inkscape:pageshadow="2"
     inkscape:pageopacity="0.0"
     inkscape:pagecheckerboard="0"
     showgrid="false"
     inkscape:zoom="47.625"
     inkscape:cx="7.9895013"
     inkscape:cy="4.3674541"
     inkscape:window-width="1920"
     inkscape:window-height="1000"
     inkscape:window-x="-11"
     inkscape:window-y="-11"
     inkscape:window-maximized="1"
     inkscape:current-layer="svg19" />
  <path
     d="M4.66671 14.6666H2.66671C2.31309 14.6666 1.97395 14.5262 1.7239 14.2761C1.47385 14.0261 1.33337 13.6869 1.33337 13.3333V8.66665C1.33337 8.31302 1.47385 7.97389 1.7239 7.72384C1.97395 7.47379 2.31309 7.33331 2.66671 7.33331H4.66671M9.33337 5.99998V3.33331C9.33337 2.80288 9.12266 2.29417 8.74759 1.9191C8.37252 1.54403 7.86381 1.33331 7.33337 1.33331L4.66671 7.33331V14.6666H12.1867C12.5083 14.6703 12.8203 14.5576 13.0653 14.3493C13.3103 14.1411 13.4718 13.8513 13.52 13.5333L14.44 7.53331C14.469 7.34222 14.4562 7.1471 14.4023 6.96148C14.3484 6.77586 14.2548 6.60418 14.1279 6.45832C14.0011 6.31247 13.8441 6.19593 13.6678 6.11679C13.4914 6.03765 13.3 5.99779 13.1067 5.99998H9.33337Z"
     stroke="#0275B1"
     stroke-width="2"
     stroke-linecap="round"
     stroke-linejoin="round"
     id="path17" />
</svg>
