<?xml version="1.0" encoding="UTF-8" standalone="no"?>
<svg
   width="24"
   height="24"
   viewBox="0 0 24 24"
   fill="none"
   version="1.1"
   id="svg177"
   sodipodi:docname="briefcase.svg"
   inkscape:version="1.1 (c68e22c387, 2021-05-23)"
   xmlns:inkscape="http://www.inkscape.org/namespaces/inkscape"
   xmlns:sodipodi="http://sodipodi.sourceforge.net/DTD/sodipodi-0.dtd"
   xmlns="http://www.w3.org/2000/svg"
   xmlns:svg="http://www.w3.org/2000/svg">
  <defs
     id="defs181" />
  <sodipodi:namedview
     id="namedview179"
     pagecolor="#ffffff"
     bordercolor="#666666"
     borderopacity="1.0"
     inkscape:pageshadow="2"
     inkscape:pageopacity="0.0"
     inkscape:pagecheckerboard="0"
     showgrid="false"
     inkscape:zoom="33.166667"
     inkscape:cx="11.984925"
     inkscape:cy="11.698492"
     inkscape:window-width="1920"
     inkscape:window-height="1000"
     inkscape:window-x="-11"
     inkscape:window-y="-11"
     inkscape:window-maximized="1"
     inkscape:current-layer="svg177" />
  <path
     style="color:#000000;fill:#181818;stroke-linecap:round;stroke-linejoin:round;-inkscape-stroke:none"
     d="M 4,6 C 2.3549921,6 1,7.3549921 1,9 v 10 c 0,1.645023 1.3550102,3 3,3 h 16 c 1.645005,0 3,-1.354995 3,-3 V 9 C 23,7.3550102 21.645023,6 20,6 Z m 0,2 h 16 c 0.564175,0 1,0.435852 1,1 v 10 c 0,0.564193 -0.435807,1 -1,1 H 4 C 3.435852,20 3,19.564175 3,19 V 9 C 3,8.4358701 3.4358701,8 4,8 Z"
     id="path173" />
  <path
     style="color:#000000;fill:#181818;stroke-linecap:round;stroke-linejoin:round;-inkscape-stroke:none"
     d="M 10,2 C 9.2047416,2 8.4412465,2.316551 7.8789062,2.8789063 7.316551,3.4412465 7,4.2047416 7,5 v 16 a 1,1 0 0 0 1,1 1,1 0 0 0 1,-1 V 5 C 9,4.7343994 9.1051647,4.4807678 9.2929688,4.2929687 9.4807678,4.1051647 9.7343994,4 10,4 h 4 c 0.265556,0 0.519178,0.1051254 0.707031,0.2929687 C 14.894837,4.4807594 15,4.7343869 15,5 v 16 a 1,1 0 0 0 1,1 1,1 0 0 0 1,-1 V 5 C 17,4.2047542 16.683487,3.4412548 16.121094,2.8789063 15.558748,2.3165904 14.795243,2 14,2 Z"
     id="path175" />
</svg>
