<?xml version="1.0" encoding="UTF-8" standalone="no"?>
<svg
   width="24"
   height="24"
   viewBox="0 0 24 24"
   fill="none"
   version="1.1"
   id="svg622"
   sodipodi:docname="more-horizontal (1).svg"
   inkscape:version="1.1 (c68e22c387, 2021-05-23)"
   xmlns:inkscape="http://www.inkscape.org/namespaces/inkscape"
   xmlns:sodipodi="http://sodipodi.sourceforge.net/DTD/sodipodi-0.dtd"
   xmlns="http://www.w3.org/2000/svg"
   xmlns:svg="http://www.w3.org/2000/svg">
  <defs
     id="defs626" />
  <sodipodi:namedview
     id="namedview624"
     pagecolor="#ffffff"
     bordercolor="#666666"
     borderopacity="1.0"
     inkscape:pageshadow="2"
     inkscape:pageopacity="0.0"
     inkscape:pagecheckerboard="0"
     showgrid="false"
     inkscape:zoom="33.166667"
     inkscape:cx="12.015075"
     inkscape:cy="12"
     inkscape:window-width="1920"
     inkscape:window-height="1000"
     inkscape:window-x="-11"
     inkscape:window-y="-11"
     inkscape:window-maximized="1"
     inkscape:current-layer="svg622" />
  <path
     style="color:#000000;fill:#181818;stroke-linecap:round;stroke-linejoin:round;-inkscape-stroke:none"
     d="m 12,10 c -1.092706,0 -2,0.907294 -2,2 0,1.092706 0.907294,2 2,2 1.092706,0 2,-0.907294 2,-2 0,-1.092706 -0.907294,-2 -2,-2 z"
     id="path616" />
  <path
     style="color:#000000;fill:#181818;stroke-linecap:round;stroke-linejoin:round;-inkscape-stroke:none"
     d="m 19,10 c -1.092706,0 -2,0.907294 -2,2 0,1.092706 0.907294,2 2,2 1.092706,0 2,-0.907294 2,-2 0,-1.092706 -0.907294,-2 -2,-2 z"
     id="path618" />
  <path
     style="color:#000000;fill:#181818;stroke-linecap:round;stroke-linejoin:round;-inkscape-stroke:none"
     d="m 5,10 c -1.0927053,0 -2,0.90727 -2,2 0,1.09273 0.9072947,2 2,2 1.0927053,0 2,-0.90727 2,-2 0,-1.09273 -0.9072947,-2 -2,-2 z"
     id="path620" />
</svg>
