<?xml version="1.0" encoding="UTF-8" standalone="no"?>
<svg
   width="24"
   height="24"
   viewBox="0 0 24 24"
   fill="none"
   version="1.1"
   id="svg891"
   sodipodi:docname="rss.svg"
   inkscape:version="1.1 (c68e22c387, 2021-05-23)"
   xmlns:inkscape="http://www.inkscape.org/namespaces/inkscape"
   xmlns:sodipodi="http://sodipodi.sourceforge.net/DTD/sodipodi-0.dtd"
   xmlns="http://www.w3.org/2000/svg"
   xmlns:svg="http://www.w3.org/2000/svg">
  <defs
     id="defs895" />
  <sodipodi:namedview
     id="namedview893"
     pagecolor="#ffffff"
     bordercolor="#666666"
     borderopacity="1.0"
     inkscape:pageshadow="2"
     inkscape:pageopacity="0.0"
     inkscape:pagecheckerboard="0"
     showgrid="false"
     inkscape:zoom="33.166667"
     inkscape:cx="11.984925"
     inkscape:cy="12"
     inkscape:window-width="1920"
     inkscape:window-height="1000"
     inkscape:window-x="-11"
     inkscape:window-y="-11"
     inkscape:window-maximized="1"
     inkscape:current-layer="svg891" />
  <path
     style="color:#000000;fill:#181818;stroke-linecap:round;stroke-linejoin:round;-inkscape-stroke:none"
     d="m 4,10 a 1,1 0 0 0 -1,1 1,1 0 0 0 1,1 c 2.122119,0 4.1556408,0.843203 5.65625,2.34375 C 11.156802,15.84439 12,17.877937 12,20 a 1,1 0 0 0 1,1 1,1 0 0 0 1,-1 C 14,17.348268 12.945358,14.804844 11.070313,12.929688 9.1951851,11.054638 6.6517762,10 4,10 Z"
     id="path885" />
  <path
     style="color:#000000;fill:#181818;stroke-linecap:round;stroke-linejoin:round;-inkscape-stroke:none"
     d="M 4,3 A 1,1 0 0 0 3,4 1,1 0 0 0 4,5 C 7.9786234,5 11.794086,6.5792612 14.607422,9.3925781 17.420761,12.205927 19,16.021333 19,20 a 1,1 0 0 0 1,1 1,1 0 0 0 1,-1 C 21,15.491676 19.209339,11.166381 16.021484,7.9785156 12.833626,4.7906785 8.5082881,3 4,3 Z"
     id="path887" />
  <path
     style="color:#000000;fill:#181818;stroke-linecap:round;stroke-linejoin:round;-inkscape-stroke:none"
     d="m 5,17 c -1.0927053,0 -2,0.90727 -2,2 0,1.09273 0.9072947,2 2,2 1.0927053,0 2,-0.90727 2,-2 0,-1.09273 -0.9072947,-2 -2,-2 z"
     id="path889" />
</svg>
