<?xml version="1.0" encoding="UTF-8" standalone="no"?>
<svg
   width="24"
   height="24"
   viewBox="0 0 24 24"
   fill="none"
   version="1.1"
   id="svg140"
   sodipodi:docname="bell.svg"
   inkscape:version="1.1 (c68e22c387, 2021-05-23)"
   xmlns:inkscape="http://www.inkscape.org/namespaces/inkscape"
   xmlns:sodipodi="http://sodipodi.sourceforge.net/DTD/sodipodi-0.dtd"
   xmlns="http://www.w3.org/2000/svg"
   xmlns:svg="http://www.w3.org/2000/svg">
  <defs
     id="defs144" />
  <sodipodi:namedview
     id="namedview142"
     pagecolor="#ffffff"
     bordercolor="#666666"
     borderopacity="1.0"
     inkscape:pageshadow="2"
     inkscape:pageopacity="0.0"
     inkscape:pagecheckerboard="0"
     showgrid="false"
     inkscape:zoom="33.166667"
     inkscape:cx="11.984925"
     inkscape:cy="20.894472"
     inkscape:window-width="1920"
     inkscape:window-height="1000"
     inkscape:window-x="-11"
     inkscape:window-y="-11"
     inkscape:window-maximized="1"
     inkscape:current-layer="svg140" />
  <path
     style="color:#000000;fill:#181818;stroke-linecap:round;stroke-linejoin:round;-inkscape-stroke:none"
     d="M 12,1 C 10.14387,1 8.3632639,1.7382986 7.0507812,3.0507813 5.7382986,4.3632639 5,6.1438702 5,8 5,11.357139 4.2876458,13.428053 3.6230469,14.646484 2.9584479,15.864916 2.4453125,16.167969 2.4453125,16.167969 A 1.0001,1.0001 0 0 0 3,18 h 18 a 1.0001,1.0001 0 0 0 0.554687,-1.832031 c 0,0 -0.513135,-0.303053 -1.177734,-1.521485 C 19.712354,13.428053 19,11.357139 19,8 19,6.1438869 18.261806,4.363275 16.949219,3.0507813 15.636756,1.7382955 13.85613,1 12,1 Z m 0,2 c 1.326467,0 2.597221,0.5268918 3.535156,1.4648437 C 16.473167,5.4027878 17,6.6735163 17,8 c 0,3.642854 0.787647,6.07195 1.623047,7.603516 0.148631,0.272491 0.172361,0.176073 0.324219,0.396484 H 5.0527344 C 5.2045925,15.779589 5.2283216,15.876007 5.3769531,15.603516 6.2123527,14.07195 7,11.642854 7,8 7,6.673533 7.5268886,5.4027989 8.4648438,4.4648437 9.4027989,3.5268886 10.673533,3 12,3 Z"
     id="path136" />
  <path
     style="color:#000000;fill:#181818;stroke-linecap:round;stroke-linejoin:round;-inkscape-stroke:none"
     d="m 10.527344,20.033203 a 1,1 0 0 0 -0.7597659,0.101563 1,1 0 0 0 -0.3632812,1.367187 c 0.2637173,0.45468 0.6421621,0.831496 1.0976561,1.09375 0.455302,0.262293 0.972419,0.400391 1.498047,0.400391 0.525628,0 1.042745,-0.138098 1.498047,-0.400391 0.455188,-0.262276 0.834257,-0.639618 1.097656,-1.09375 a 1,1 0 0 0 -0.363281,-1.367187 1,1 0 0 0 -1.367188,0.363281 C 12.77727,20.649709 12.651667,20.775987 12.5,20.863281 a 1.0001,1.0001 0 0 0 -0.002,0 C 12.346149,20.950788 12.175172,20.996094 12,20.996094 c -0.175172,0 -0.346149,-0.04531 -0.498047,-0.132813 a 1.0001,1.0001 0 0 0 -0.002,0 c -0.151705,-0.08734 -0.277352,-0.213715 -0.365234,-0.365234 a 1,1 0 0 0 -0.607422,-0.464844 z"
     id="path138" />
</svg>
