<?xml version="1.0" encoding="UTF-8" standalone="no"?>
<svg
   width="24"
   height="24"
   viewBox="0 0 24 24"
   fill="none"
   version="1.1"
   id="svg670"
   sodipodi:docname="more-horizontal (2).svg"
   inkscape:version="1.1 (c68e22c387, 2021-05-23)"
   xmlns:inkscape="http://www.inkscape.org/namespaces/inkscape"
   xmlns:sodipodi="http://sodipodi.sourceforge.net/DTD/sodipodi-0.dtd"
   xmlns="http://www.w3.org/2000/svg"
   xmlns:svg="http://www.w3.org/2000/svg">
  <defs
     id="defs674" />
  <sodipodi:namedview
     id="namedview672"
     pagecolor="#ffffff"
     bordercolor="#666666"
     borderopacity="1.0"
     inkscape:pageshadow="2"
     inkscape:pageopacity="0.0"
     inkscape:pagecheckerboard="0"
     showgrid="false"
     inkscape:zoom="33.166667"
     inkscape:cx="11.984925"
     inkscape:cy="12"
     inkscape:window-width="1920"
     inkscape:window-height="1000"
     inkscape:window-x="-11"
     inkscape:window-y="-11"
     inkscape:window-maximized="1"
     inkscape:current-layer="svg670" />
  <g
     id="path664">
    <path
       style="color:#000000;fill:#181818;stroke-linecap:round;stroke-linejoin:round;-inkscape-stroke:none"
       d="m 11,12 c 0,0.5523 0.4477,1 1,1 0.5523,0 1,-0.4477 1,-1 0,-0.5523 -0.4477,-1 -1,-1 -0.5523,0 -1,0.4477 -1,1 z"
       id="path678" />
    <path
       style="color:#000000;fill:#181818;stroke-linecap:round;stroke-linejoin:round;-inkscape-stroke:none"
       d="m 12,10.5 c -0.822503,0 -1.5,0.677497 -1.5,1.5 0,0.822503 0.677497,1.5 1.5,1.5 0.822503,0 1.5,-0.677497 1.5,-1.5 0,-0.822503 -0.677497,-1.5 -1.5,-1.5 z m 0,1 c 0.282096,0 0.5,0.217904 0.5,0.5 0,0.282096 -0.217904,0.5 -0.5,0.5 -0.282096,0 -0.5,-0.217904 -0.5,-0.5 0,-0.282096 0.217904,-0.5 0.5,-0.5 z"
       id="path680" />
  </g>
  <g
     id="path666">
    <path
       style="color:#000000;fill:#181818;stroke-linecap:round;stroke-linejoin:round;-inkscape-stroke:none"
       d="m 11,19 c 0,0.5523 0.4477,1 1,1 0.5523,0 1,-0.4477 1,-1 0,-0.5523 -0.4477,-1 -1,-1 -0.5523,0 -1,0.4477 -1,1 z"
       id="path686" />
    <path
       style="color:#000000;fill:#181818;stroke-linecap:round;stroke-linejoin:round;-inkscape-stroke:none"
       d="m 12,17.5 c -0.822503,0 -1.5,0.677497 -1.5,1.5 0,0.822503 0.677497,1.5 1.5,1.5 0.822503,0 1.5,-0.677497 1.5,-1.5 0,-0.822503 -0.677497,-1.5 -1.5,-1.5 z m 0,1 c 0.282096,0 0.5,0.217904 0.5,0.5 0,0.282096 -0.217904,0.5 -0.5,0.5 -0.282096,0 -0.5,-0.217904 -0.5,-0.5 0,-0.282096 0.217904,-0.5 0.5,-0.5 z"
       id="path688" />
  </g>
  <g
     id="path668">
    <path
       style="color:#000000;fill:#181818;stroke-linecap:round;stroke-linejoin:round;-inkscape-stroke:none"
       d="m 11,5 c 0,0.55228 0.4477,1 1,1 0.5523,0 1,-0.44772 1,-1 0,-0.55228 -0.4477,-1 -1,-1 -0.5523,0 -1,0.44772 -1,1 z"
       id="path694" />
    <path
       style="color:#000000;fill:#181818;stroke-linecap:round;stroke-linejoin:round;-inkscape-stroke:none"
       d="m 12,3.5 c -0.822515,0 -1.5,0.6775076 -1.5,1.5 0,0.8224924 0.677485,1.5 1.5,1.5 0.822515,0 1.5,-0.6775076 1.5,-1.5 0,-0.8224924 -0.677485,-1.5 -1.5,-1.5 z m 0,1 c 0.282084,0 0.5,0.2179335 0.5,0.5 0,0.2820665 -0.217916,0.5 -0.5,0.5 -0.282084,0 -0.5,-0.2179335 -0.5,-0.5 0,-0.2820665 0.217916,-0.5 0.5,-0.5 z"
       id="path696" />
  </g>
</svg>
