<?xml version="1.0" encoding="UTF-8" standalone="no"?>
<svg
   width="17"
   height="17"
   viewBox="0 0 17 17"
   fill="none"
   version="1.1"
   id="svg35"
   sodipodi:docname="settings.svg"
   inkscape:version="1.1 (c68e22c387, 2021-05-23)"
   xmlns:inkscape="http://www.inkscape.org/namespaces/inkscape"
   xmlns:sodipodi="http://sodipodi.sourceforge.net/DTD/sodipodi-0.dtd"
   xmlns="http://www.w3.org/2000/svg"
   xmlns:svg="http://www.w3.org/2000/svg">
  <sodipodi:namedview
     id="namedview37"
     pagecolor="#ffffff"
     bordercolor="#666666"
     borderopacity="1.0"
     inkscape:pageshadow="2"
     inkscape:pageopacity="0.0"
     inkscape:pagecheckerboard="0"
     showgrid="false"
     inkscape:zoom="44.823529"
     inkscape:cx="8.4888451"
     inkscape:cy="8.5"
     inkscape:window-width="1920"
     inkscape:window-height="1000"
     inkscape:window-x="-11"
     inkscape:window-y="-11"
     inkscape:window-maximized="1"
     inkscape:current-layer="svg35" />
  <g
     clip-path="url(#clip0)"
     id="g28">
    <path
       style="color:#000000;fill:#0275b1;stroke-linecap:round;stroke-linejoin:round;-inkscape-stroke:none"
       d="m 8.578125,5.6523437 c -1.3747884,0 -2.5,1.1252116 -2.5,2.5000001 0,1.3747884 1.1251995,2.5000002 2.5,2.5000002 1.3748005,0 2.5,-1.1252149 2.5,-2.5000002 0,-1.3747854 -1.1252116,-2.5000001 -2.5,-2.5000001 z m 0,1 c 0.8343494,0 1.5,0.6656477 1.5,1.5000001 0,0.8343523 -0.6656627,1.4999999 -1.5,1.5 -0.8343373,0 -1.5,-0.6656507 -1.5,-1.5 0,-0.8343494 0.6656506,-1.5000001 1.5,-1.5000001 z"
       id="path24" />
    <path
       style="color:#000000;fill:#0275b1;stroke-linecap:round;stroke-linejoin:round;-inkscape-stroke:none"
       d="m 8.578125,0.31835938 c -0.4860357,0 -0.9512393,0.19342541 -1.2949219,0.53710937 C 6.9395422,1.1991434 6.7460937,1.6662971 6.7460937,2.1523438 V 2.265625 c -8.371e-4,0.1163959 -0.035336,0.2291192 -0.099609,0.3261719 -0.060744,0.091724 -0.1507057,0.1602869 -0.25,0.2070312 a 0.50005,0.50005 0 0 0 -0.072266,0.015625 C 6.2144901,2.8628782 6.0926198,2.8768652 5.9746094,2.8554688 5.8565999,2.8340735 5.7478532,2.7791845 5.6621094,2.6953125 L 5.625,2.6582031 C 5.4547326,2.4877432 5.2538016,2.3520257 5.03125,2.2597656 4.8086755,2.1674961 4.5690336,2.1210938 4.328125,2.1210938 c -0.2409086,0 -0.4786041,0.046405 -0.7011719,0.1386718 C 3.4043808,2.3520286 3.2015079,2.4877528 3.03125,2.6582031 2.8607901,2.8284705 2.7270217,3.0313642 2.6347656,3.2539063 2.542511,3.4764585 2.4941406,3.7141505 2.4941406,3.9550781 c 0,0.2409277 0.04837,0.4805728 0.140625,0.703125 0.092256,0.2225421 0.2260245,0.4234826 0.3964844,0.59375 l 0.037109,0.037109 c 0.083865,0.085736 0.1387616,0.1944995 0.1601562,0.3125 0.021399,0.1179998 0.00742,0.2379149 -0.041016,0.3476562 a 0.50005,0.50005 0 0 0 -0.011719,0.029297 C 3.1342066,6.0915513 3.0608448,6.1897087 2.9628906,6.2597656 2.8666352,6.328613 2.7510215,6.3670865 2.6328125,6.3710937 H 2.578125 c -0.486031,0 -0.951237,0.1934246 -1.2949219,0.5371094 -0.34366561,0.3436794 -0.53710935,0.8108346 -0.53710935,1.296875 0,0.4860404 0.19344374,0.9531956 0.53710935,1.296875 C 1.626888,9.845638 2.092094,10.039063 2.578125,10.039063 h 0.1132813 c 0.1163989,8.35e-4 0.2310626,0.03533 0.328125,0.09961 0.097578,0.06462 0.1726298,0.156053 0.21875,0.263672 a 0.50005,0.50005 0 0 0 0.00391,0.0059 c 0.048368,0.109543 0.062418,0.229592 0.041016,0.347656 -0.021398,0.117958 -0.078298,0.226829 -0.1621093,0.3125 l -0.035156,0.03711 c -0.1705471,0.170313 -0.306196,0.371325 -0.3984375,0.59375 -0.092238,0.222554 -0.140625,0.46221 -0.140625,0.703125 0,0.240977 0.048332,0.478624 0.140625,0.701172 0.092271,0.222631 0.2281174,0.425479 0.3984375,0.595703 0.1701802,0.170276 0.3711173,0.30419 0.59375,0.396484 0.2226232,0.09229 0.4622735,0.140625 0.703125,0.140625 0.2408515,0 0.4785554,-0.04834 0.7011719,-0.140625 0.2226534,-0.0923 0.4255324,-0.226217 0.5957031,-0.396484 l 0.035156,-0.03711 c 0.085733,-0.08387 0.1945155,-0.13877 0.3125,-0.160156 0.1181233,-0.02141 0.240048,-0.0074 0.3496094,0.04102 a 0.50005,0.50005 0 0 0 0.029297,0.01172 c 0.1131268,0.04161 0.2112165,0.116938 0.28125,0.214843 0.06944,0.09777 0.1085283,0.214287 0.1113281,0.333985 v 0.04883 c 0,0.485465 0.1942349,0.951414 0.5371094,1.294922 0.3436699,0.343738 0.8108095,0.537109 1.296875,0.537109 0.4860592,0 0.9512473,-0.193366 1.2949219,-0.537109 0.3428596,-0.343507 0.5371096,-0.809457 0.5371096,-1.294922 v -0.111328 -0.002 c 8.35e-4,-0.116401 0.03531,-0.231049 0.09961,-0.328125 0.06457,-0.09751 0.156163,-0.172683 0.263672,-0.21875 a 0.50005,0.50005 0 0 0 0.0059,-0.002 c 0.109627,-0.04838 0.231577,-0.06436 0.34961,-0.04297 0.117925,0.02138 0.226832,0.07829 0.3125,0.162109 l 0.03516,0.03516 c 0.170368,0.170644 0.373344,0.306223 0.595703,0.398438 0.222457,0.0922 0.460143,0.140625 0.701172,0.140625 0.241092,0 0.480675,-0.04837 0.703125,-0.140625 0.222567,-0.09224 0.423471,-0.228021 0.59375,-0.398438 0.169715,-0.16988 0.306336,-0.371525 0.398438,-0.59375 0.09226,-0.222619 0.138671,-0.462286 0.138671,-0.703125 0,-0.240839 -0.04641,-0.478552 -0.138671,-0.701172 -0.09228,-0.222521 -0.228084,-0.425486 -0.398438,-0.595703 l -0.03516,-0.03516 c -0.08401,-0.08592 -0.140722,-0.194485 -0.16211,-0.3125 -0.0214,-0.118012 -0.0074,-0.240015 0.04102,-0.349609 a 0.50005,0.50005 0 0 0 0.002,-0.0039 c 0.04611,-0.107577 0.123109,-0.199054 0.220703,-0.263671 0.09694,-0.06422 0.211752,-0.1007288 0.328125,-0.101563 h 0.05859 c 0.48609,0 0.953242,-0.1914681 1.296875,-0.5351562 0.343743,-0.3436747 0.537109,-0.8108158 0.537109,-1.296875 0,-0.4860655 -0.19337,-0.9532052 -0.537109,-1.2968751 C 15.531366,6.5117661 15.064215,6.3183594 14.578125,6.3183594 h -0.111328 -0.002 C 14.348506,6.3175278 14.23581,6.2830653 14.138672,6.21875 14.047362,6.1582597 13.978374,6.0712253 13.931641,5.9726562 a 0.50005,0.50005 0 0 0 -0.01563,-0.076172 C 13.867588,5.7867055 13.853615,5.6648515 13.875,5.546875 c 0.02139,-0.1179845 0.07629,-0.2267667 0.160156,-0.3125 l 0.03711,-0.035156 c 0.170556,-0.1703223 0.306208,-0.3732119 0.398437,-0.5957031 0.09222,-0.2224541 0.138672,-0.4601301 0.138672,-0.7011718 0,-0.2410418 -0.04645,-0.4806642 -0.138672,-0.703125 C 14.378477,2.9767484 14.242831,2.7758006 14.072266,2.6054688 13.902048,2.435017 13.699194,2.2993017 13.476563,2.2070313 13.254008,2.1147929 13.016306,2.0683594 12.775391,2.0683594 c -0.240916,0 -0.478618,0.046434 -0.701172,0.1386719 -0.222632,0.09227 -0.425485,0.2279857 -0.595703,0.3984375 l -0.04102,0.039063 c -0.0851,0.081259 -0.192882,0.1372219 -0.308594,0.1582031 -0.117896,0.021382 -0.237927,0.00741 -0.347656,-0.041016 a 0.50005,0.50005 0 0 0 -0.0059,-0.00195 C 10.667836,2.7136499 10.576402,2.6366931 10.511719,2.5390625 10.447788,2.4424935 10.413301,2.3285944 10.412109,2.2128906 V 2.1523438 C 10.412109,1.6662971 10.218675,1.1991442 9.875,0.85546875 9.5313221,0.5117895 9.0641669,0.31835938 8.578125,0.31835938 Z m 0,1.00000002 c 0.2212174,0 0.4334221,0.087718 0.5898438,0.2441406 0.156424,0.1564241 0.2441406,0.3686311 0.2441406,0.5898438 v 0.060547 a 0.50005,0.50005 0 0 0 0,0.00195 c 0.00124,0.3120056 0.093438,0.6168614 0.265625,0.8769531 0.1715162,0.2588809 0.4142936,0.460901 0.6992186,0.5839844 6.05e-4,2.667e-4 0.0013,-2.661e-4 0.002,0 0.291999,0.1284336 0.615834,0.1682485 0.929688,0.1113281 0.314552,-0.057035 0.603553,-0.2082643 0.832031,-0.4316406 a 0.50005,0.50005 0 0 0 0.0059,-0.00391 L 12.185547,3.3125 c 0.07738,-0.077488 0.170316,-0.1397112 0.271484,-0.1816406 0.101246,-0.041961 0.208875,-0.0625 0.31836,-0.0625 0.109484,0 0.217114,0.020539 0.318359,0.0625 0.101168,0.041929 0.194103,0.1041526 0.271484,0.1816406 0.07743,0.077328 0.139668,0.168282 0.181641,0.2695313 0.04198,0.1012587 0.0625,0.2109146 0.0625,0.3203125 0,0.1093978 -0.02052,0.2170938 -0.0625,0.3183593 -0.04197,0.1012486 -0.104197,0.194147 -0.181641,0.2714844 l -0.04101,0.039063 a 0.50005,0.50005 0 0 0 -0.0039,0.00391 c -0.223533,0.2285065 -0.372674,0.5194494 -0.429688,0.8339844 -0.05701,0.3145431 -0.01764,0.6392799 0.111328,0.9316406 l -0.04297,-0.203125 v 0.054687 a 0.50005,0.50005 0 0 0 0.03906,0.1972657 c 0.122944,0.2868881 0.32792,0.5309015 0.587891,0.703125 0.260129,0.172232 0.564958,0.2643886 0.876953,0.265625 a 0.50005,0.50005 0 0 0 0.002,0 h 0.113281 c 0.221309,0 0.433478,0.087744 0.589844,0.2441406 0.156461,0.1564296 0.24414,0.3686499 0.24414,0.5898438 0,0.22118 -0.08768,0.4314657 -0.24414,0.5878906 a 0.50005,0.50005 0 0 0 0,0.00195 C 15.011602,8.8985789 14.799434,8.984375 14.578125,8.984375 h -0.05859 a 0.50005,0.50005 0 0 0 -0.0039,0 c -0.311328,0.00125 -0.61522,0.095927 -0.875,0.2675781 -0.259424,0.1717654 -0.462932,0.4155825 -0.585937,0.7011719 -0.127924,0.291658 -0.168096,0.614646 -0.111329,0.927734 0.05701,0.314585 0.208247,0.605504 0.431641,0.833985 a 0.50005,0.50005 0 0 0 0.0039,0.0039 l 0.03906,0.04102 c 0.07745,0.07738 0.139722,0.168453 0.18164,0.269531 0.04194,0.10118 0.0625,0.208799 0.0625,0.318359 0,0.109561 -0.02056,0.219132 -0.0625,0.320313 -0.04189,0.10107 -0.104099,0.192053 -0.18164,0.269531 a 0.50005,0.50005 0 0 0 0,0.002 c -0.07752,0.07758 -0.168299,0.137731 -0.269531,0.179688 -0.10115,0.04195 -0.210805,0.06445 -0.320313,0.06445 -0.10937,0 -0.217017,-0.02245 -0.318359,-0.06445 -0.101241,-0.04199 -0.194253,-0.102331 -0.271485,-0.179688 a 0.50005,0.50005 0 0 0 0,-0.002 l -0.03906,-0.03906 a 0.50005,0.50005 0 0 0 -0.0039,-0.0039 c -0.228532,-0.223586 -0.519511,-0.372669 -0.833985,-0.429687 -0.313265,-0.05677 -0.636307,-0.01837 -0.927734,0.109375 -0.285778,0.123049 -0.5314131,0.326629 -0.7031252,0.585937 -0.1723474,0.260194 -0.2643744,0.565021 -0.265625,0.876953 a 0.50005,0.50005 0 0 0 0,0.002 v 0.113281 c 0,0.221309 -0.087749,0.431524 -0.2441407,0.58789 -0.1564249,0.156457 -0.3667105,0.244141 -0.5878906,0.244141 -0.2211938,0 -0.4334141,-0.08768 -0.5898437,-0.244141 -0.1563969,-0.156365 -0.2441407,-0.366581 -0.2441407,-0.58789 v -0.06055 a 0.50005,0.50005 0 0 0 0,-0.01172 C 7.7913227,13.759207 7.6866867,13.448608 7.5,13.1875 7.3165636,12.931061 7.0600332,12.73689 6.765625,12.625 6.4769132,12.500955 6.1587281,12.461546 5.8496094,12.517578 5.5350743,12.574592 5.2441314,12.723733 5.015625,12.947266 a 0.50005,0.50005 0 0 0 -0.00391,0.0039 l -0.039063,0.04102 a 0.50005,0.50005 0 0 0 -0.00195,0 c -0.077489,0.07753 -0.168445,0.137784 -0.2695312,0.179687 -0.1011032,0.04191 -0.2087713,0.06445 -0.3183594,0.06445 -0.1095881,0 -0.2192161,-0.02254 -0.3203125,-0.06445 -0.1010869,-0.04191 -0.1920517,-0.102164 -0.2695312,-0.179687 -0.07762,-0.07758 -0.1397113,-0.170317 -0.1816407,-0.271485 -0.041907,-0.101052 -0.064453,-0.208737 -0.064453,-0.318359 0,-0.109485 0.022492,-0.219067 0.064453,-0.320313 0.041958,-0.101175 0.1022948,-0.192244 0.1796875,-0.269531 a 0.50005,0.50005 0 0 0 0.00195,0 l 0.039063,-0.04102 a 0.50005,0.50005 0 0 0 0.00391,-0.0039 C 4.0595058,11.539049 4.2105364,11.249989 4.2675781,10.935547 4.3244779,10.621662 4.2847409,10.297843 4.15625,10.005859 4.0332331,9.720192 3.8296728,9.4764488 3.5703125,9.3046875 3.3101845,9.1324178 3.0053342,9.0403132 2.6933594,9.0390625 a 0.50005,0.50005 0 0 0 -0.00195,0 H 2.578125 c -0.2212083,0 -0.431476,-0.087726 -0.5878906,-0.2441406 C 1.8338205,8.6385018 1.7460938,8.426277 1.7460937,8.2050781 c 0,-0.2211989 0.087727,-0.4334236 0.2441407,-0.5898437 C 2.146649,7.4588197 2.3569167,7.3710938 2.578125,7.3710937 h 0.060547 a 0.50005,0.50005 0 0 0 0.011719,0 C 2.9712878,7.3635756 3.2818712,7.2609705 3.5429688,7.0742187 3.7994263,6.8908001 3.9935615,6.6323763 4.1054687,6.3378906 4.2293623,6.0493326 4.2689741,5.7311348 4.2128906,5.421875 4.1558653,5.1073559 4.0067182,4.8183471 3.7832031,4.5898437 a 0.50005,0.50005 0 0 0 -0.00391,-0.00391 L 3.7382813,4.5449219 C 3.6608014,4.4675295 3.6005375,4.3746151 3.5585938,4.2734375 3.5166485,4.1722501 3.4941406,4.0645901 3.4941406,3.9550781 c 0,-0.109512 0.022508,-0.2171719 0.064453,-0.3183593 0.041944,-0.1011777 0.1022076,-0.194092 0.1796875,-0.2714844 0.077402,-0.077489 0.170317,-0.1397037 0.2714843,-0.1816406 0.1011519,-0.041933 0.2088284,-0.0625 0.3183594,-0.0625 0.109531,0 0.2191674,0.02057 0.3203125,0.0625 0.1011681,0.04194 0.1921389,0.1041607 0.2695312,0.1816406 l 0.041016,0.041016 a 0.50005,0.50005 0 0 0 0.00391,0.00391 C 5.1913864,3.6336639 5.4803918,3.7828191 5.7949219,3.8398438 6.109431,3.8968673 6.4341316,3.8575703 6.7265625,3.7285156 L 6.5253906,3.7714844 H 6.578125 A 0.50005,0.50005 0 0 0 6.7753906,3.7324219 C 7.062152,3.6095179 7.3062443,3.4046616 7.4785156,3.1445313 7.6507901,2.8843961 7.7448431,2.5795529 7.7460937,2.2675781 a 0.50005,0.50005 0 0 0 0,-0.00195 V 2.1523438 c 0,-0.2212127 0.087722,-0.433419 0.2441407,-0.5898438 C 8.1466513,1.4060825 8.3569214,1.3183594 8.578125,1.3183594 Z"
       id="path26" />
  </g>
  <defs
     id="defs33">
    <clipPath
       id="clip0">
      <rect
         width="16"
         height="16"
         fill="white"
         transform="translate(0.578613 0.151855)"
         id="rect30" />
    </clipPath>
  </defs>
</svg>
