<?xml version="1.0" encoding="UTF-8" standalone="no"?>
<svg
   width="12"
   height="12"
   viewBox="0 0 12 12"
   fill="none"
   version="1.1"
   id="svg23"
   sodipodi:docname="arrow-up-right.svg"
   inkscape:version="1.1 (c68e22c387, 2021-05-23)"
   xmlns:inkscape="http://www.inkscape.org/namespaces/inkscape"
   xmlns:sodipodi="http://sodipodi.sourceforge.net/DTD/sodipodi-0.dtd"
   xmlns="http://www.w3.org/2000/svg"
   xmlns:svg="http://www.w3.org/2000/svg">
  <defs
     id="defs27" />
  <sodipodi:namedview
     id="namedview25"
     pagecolor="#ffffff"
     bordercolor="#666666"
     borderopacity="1.0"
     inkscape:pageshadow="2"
     inkscape:pageopacity="0.0"
     inkscape:pagecheckerboard="0"
     showgrid="false"
     inkscape:zoom="63.5"
     inkscape:cx="5.992126"
     inkscape:cy="6.1889764"
     inkscape:window-width="1920"
     inkscape:window-height="1000"
     inkscape:window-x="-11"
     inkscape:window-y="-11"
     inkscape:window-maximized="1"
     inkscape:current-layer="svg23" />
  <path
     style="color:#000000;fill:#02b033;stroke-linecap:round;stroke-linejoin:round;-inkscape-stroke:none"
     d="M 8.5,3 A 0.5,0.5 0 0 0 8.1464844,3.1464844 l -5,5 a 0.5,0.5 0 0 0 0,0.7070312 0.5,0.5 0 0 0 0.7070312,0 l 5,-5 a 0.5,0.5 0 0 0 0,-0.7070312 A 0.5,0.5 0 0 0 8.5,3 Z"
     id="path19" />
  <path
     style="color:#000000;fill:#02b033;stroke-linecap:round;stroke-linejoin:round;-inkscape-stroke:none"
     d="M 3.5,3 A 0.5,0.5 0 0 0 3,3.5 0.5,0.5 0 0 0 3.5,4 H 8 V 8.5 A 0.5,0.5 0 0 0 8.5,9 0.5,0.5 0 0 0 9,8.5 v -5 A 0.50005,0.50005 0 0 0 8.5,3 Z"
     id="path21" />
</svg>
