<svg width="24" height="24" viewBox="0 0 24 24" fill="none" xmlns="http://www.w3.org/2000/svg">
<rect width="24" height="24" rx="12" fill="#0275B1"/>
<path d="M7.63 13.94V12.03H5.71V10.93H7.63V9.02H8.77V10.93H10.69V12.03H8.77V13.94H7.63ZM11.8865 15V14.03L14.2965 11.98C14.7898 11.5667 15.1298 11.2267 15.3165 10.96C15.5098 10.6867 15.6065 10.3967 15.6065 10.09C15.6065 9.75667 15.4998 9.49333 15.2865 9.3C15.0732 9.1 14.8032 9 14.4765 9C14.1698 9 13.8932 9.08333 13.6465 9.25C13.4065 9.41667 13.1432 9.68333 12.8565 10.05L11.9865 9.37C12.3465 8.86333 12.7165 8.49333 13.0965 8.26C13.4832 8.02 13.9732 7.9 14.5665 7.9C15.2532 7.9 15.8098 8.09333 16.2365 8.48C16.6632 8.86667 16.8765 9.37667 16.8765 10.01C16.8765 10.2833 16.8432 10.53 16.7765 10.75C16.7098 10.9633 16.5898 11.1833 16.4165 11.41C16.2498 11.63 16.0665 11.8333 15.8665 12.02C15.6732 12.2 15.4032 12.4333 15.0565 12.72L13.6165 13.92H16.9465V15H11.8865Z" fill="white"/>
</svg>
