<?xml version="1.0" encoding="UTF-8" standalone="no"?>
<svg
   width="17"
   height="17"
   viewBox="0 0 17 17"
   fill="none"
   version="1.1"
   id="svg234"
   sodipodi:docname="edit.svg"
   inkscape:version="1.1 (c68e22c387, 2021-05-23)"
   xmlns:inkscape="http://www.inkscape.org/namespaces/inkscape"
   xmlns:sodipodi="http://sodipodi.sourceforge.net/DTD/sodipodi-0.dtd"
   xmlns="http://www.w3.org/2000/svg"
   xmlns:svg="http://www.w3.org/2000/svg">
  <sodipodi:namedview
     id="namedview236"
     pagecolor="#ffffff"
     bordercolor="#666666"
     borderopacity="1.0"
     inkscape:pageshadow="2"
     inkscape:pageopacity="0.0"
     inkscape:pagecheckerboard="0"
     showgrid="false"
     inkscape:zoom="46.823529"
     inkscape:cx="8.4893216"
     inkscape:cy="8.5"
     inkscape:window-width="1920"
     inkscape:window-height="1000"
     inkscape:window-x="-11"
     inkscape:window-y="-11"
     inkscape:window-maximized="1"
     inkscape:current-layer="svg234" />
  <g
     clip-path="url(#clip0)"
     id="g227">
    <path
       style="color:#000000;fill:#181818;stroke-linecap:round;stroke-linejoin:round;-inkscape-stroke:none"
       d="m 3.359375,3.1152344 c -0.4860404,0 -0.9531948,0.1934292 -1.296875,0.5371094 C 1.7188151,3.9960286 1.5253906,4.4631878 1.5253906,4.9492187 V 14.28125 c 0,0.486018 0.1934847,0.953182 0.5371094,1.296875 0.3436668,0.343598 0.8108158,0.537109 1.296875,0.537109 h 9.333984 c 0.486047,0 0.951247,-0.193571 1.294922,-0.537109 0.343538,-0.343675 0.53711,-0.810828 0.53711,-1.296875 V 9.6152344 a 0.5,0.5 0 0 0 -0.5,-0.5 0.5,0.5 0 0 0 -0.5,0.5 V 14.28125 c 0,0.221153 -0.08768,0.43332 -0.244141,0.589844 -0.156524,0.156461 -0.366738,0.24414 -0.587891,0.24414 H 3.359375 c -0.2211801,0 -0.4334111,-0.08774 -0.5898437,-0.24414 C 2.6130565,14.714588 2.5253906,14.502431 2.5253906,14.28125 V 4.9492187 c 0,-0.2212083 0.087726,-0.4334291 0.2441407,-0.5898437 C 2.9259506,4.2029557 3.1381761,4.1152344 3.359375,4.1152344 h 4.6660156 a 0.5,0.5 0 0 0 0.5,-0.5 0.5,0.5 0 0 0 -0.5,-0.5 z"
       id="path223" />
    <path
       style="color:#000000;fill:#181818;stroke-linecap:round;stroke-linejoin:round;-inkscape-stroke:none"
       d="m 14.025391,1.7011719 c -0.507509,0 -0.994683,0.2016866 -1.353516,0.5605469 L 6.3378906,8.59375 A 0.50005,0.50005 0 0 0 6.2070312,8.8261719 L 5.5410156,11.494141 a 0.50005,0.50005 0 0 0 0.6054688,0.605468 L 8.8144531,11.433594 A 0.50005,0.50005 0 0 0 9.046875,11.300781 L 15.378906,4.96875 c 0.358821,-0.3588477 0.560547,-0.8460264 0.560547,-1.3535156 0,-0.5074957 -0.201718,-0.9946737 -0.560547,-1.3535156 C 15.020073,1.9028585 14.532899,1.7011719 14.025391,1.7011719 Z m 0,1 c 0.24269,0 0.474918,0.095999 0.646484,0.2675781 0.171571,0.1715775 0.267578,0.4038208 0.267578,0.6464844 0,0.24265 -0.096,0.4748925 -0.267578,0.6464843 L 8.4375,10.496094 6.7148437,10.925781 7.1445312,9.203125 13.378906,2.96875 C 13.550473,2.7971708 13.7827,2.7011719 14.025391,2.7011719 Z"
       id="path225" />
  </g>
  <defs
     id="defs232">
    <clipPath
       id="clip0">
      <rect
         width="16"
         height="16"
         fill="white"
         transform="translate(0.692383 0.948242)"
         id="rect229" />
    </clipPath>
  </defs>
</svg>
