<?xml version="1.0" encoding="UTF-8" standalone="no"?>
<svg
   width="16"
   height="16"
   viewBox="0 0 16 16"
   fill="none"
   version="1.1"
   id="svg385"
   sodipodi:docname="help-circle.svg"
   inkscape:version="1.1 (c68e22c387, 2021-05-23)"
   xmlns:inkscape="http://www.inkscape.org/namespaces/inkscape"
   xmlns:sodipodi="http://sodipodi.sourceforge.net/DTD/sodipodi-0.dtd"
   xmlns="http://www.w3.org/2000/svg"
   xmlns:svg="http://www.w3.org/2000/svg">
  <defs
     id="defs389" />
  <sodipodi:namedview
     id="namedview387"
     pagecolor="#ffffff"
     bordercolor="#666666"
     borderopacity="1.0"
     inkscape:pageshadow="2"
     inkscape:pageopacity="0.0"
     inkscape:pagecheckerboard="0"
     showgrid="false"
     inkscape:zoom="49.75"
     inkscape:cx="7.9899497"
     inkscape:cy="8"
     inkscape:window-width="1920"
     inkscape:window-height="1000"
     inkscape:window-x="-11"
     inkscape:window-y="-11"
     inkscape:window-maximized="1"
     inkscape:current-layer="svg385" />
  <path
     style="color:#000000;fill:#ffffff;stroke-linecap:round;stroke-linejoin:round;-inkscape-stroke:none"
     d="M 8,0.83398438 C 4.0478839,0.83398438 0.83398437,4.0478839 0.83398438,8 c 0,3.952098 3.21389682,7.166016 7.16601562,7.166016 3.952137,0 7.166016,-3.213925 7.166016,-7.166016 C 15.166016,4.0478902 11.952135,0.83398438 8,0.83398438 Z M 8,1.8339844 c 3.411698,0 6.166016,2.7543328 6.166016,6.1660156 0,3.411661 -2.754321,6.166016 -6.166016,6.166016 C 4.5883262,14.166016 1.8339844,11.411655 1.8339844,8 1.8339844,4.5883235 4.5883235,1.8339844 8,1.8339844 Z"
     id="path379" />
  <path
     style="color:#000000;fill:#ffffff;stroke-linecap:round;stroke-linejoin:round;-inkscape-stroke:none"
     d="M 8.3691406,4.1992187 C 7.7873483,4.0994247 7.1885927,4.2087307 6.6796875,4.5078125 6.1707849,4.8069053 5.7837695,5.2771426 5.5878906,5.8339844 A 0.5,0.5 0 0 0 5.8945312,6.4707031 0.5,0.5 0 0 0 6.53125,6.1660156 C 6.6488309,5.8317583 6.8820034,5.5506405 7.1875,5.3710937 7.4929939,5.191556 7.8519252,5.1256411 8.2011719,5.1855469 8.5504236,5.2454535 8.8655434,5.4261756 9.09375,5.6972656 9.3219449,5.9683432 9.4477983,6.3116717 9.4472656,6.6660156 9.4472656,7.0826796 9.1059178,7.4593357 8.6699219,7.75 8.2339259,8.0406643 7.7890625,8.1914062 7.7890625,8.1914063 A 0.5,0.5 0 0 0 7.4726562,8.8242188 0.5,0.5 0 0 0 8.1054688,9.140625 c 0,0 0.5551375,-0.1825912 1.1191406,-0.5585937 C 9.7881888,8.2063112 10.446277,7.5835046 10.447266,6.6679687 10.448153,6.0776736 10.23952,5.5043161 9.859375,5.0527344 9.4792222,4.6011451 8.950928,4.2990119 8.3691406,4.1992187 Z"
     id="path381" />
  <path
     style="color:#000000;fill:#ffffff;stroke-linecap:round;stroke-linejoin:round;-inkscape-stroke:none"
     d="m 8,10.833984 a 0.5,0.5 0 0 0 -0.5,0.5 0.5,0.5 0 0 0 0.5,0.5 h 0.00586 a 0.5,0.5 0 0 0 0.5,-0.5 0.5,0.5 0 0 0 -0.5,-0.5 z"
     id="path383" />
</svg>
