<?xml version="1.0" encoding="UTF-8" standalone="no"?>
<svg
   width="24"
   height="24"
   viewBox="0 0 24 24"
   fill="none"
   version="1.1"
   id="svg464"
   sodipodi:docname="message-square.svg"
   inkscape:version="1.1 (c68e22c387, 2021-05-23)"
   xmlns:inkscape="http://www.inkscape.org/namespaces/inkscape"
   xmlns:sodipodi="http://sodipodi.sourceforge.net/DTD/sodipodi-0.dtd"
   xmlns="http://www.w3.org/2000/svg"
   xmlns:svg="http://www.w3.org/2000/svg">
  <defs
     id="defs468" />
  <sodipodi:namedview
     id="namedview466"
     pagecolor="#ffffff"
     bordercolor="#666666"
     borderopacity="1.0"
     inkscape:pageshadow="2"
     inkscape:pageopacity="0.0"
     inkscape:pagecheckerboard="0"
     showgrid="false"
     inkscape:zoom="33.166667"
     inkscape:cx="11.984925"
     inkscape:cy="12"
     inkscape:window-width="1920"
     inkscape:window-height="1000"
     inkscape:window-x="-11"
     inkscape:window-y="-11"
     inkscape:window-maximized="1"
     inkscape:current-layer="svg464" />
  <path
     style="color:#000000;fill:#181818;stroke-linecap:round;stroke-linejoin:round;-inkscape-stroke:none"
     d="M 5,2 C 4.2047416,2 3.4412465,2.316551 2.8789063,2.8789063 2.316551,3.4412465 2,4.2047416 2,5 v 16 a 1.0001,1.0001 0 0 0 1.7070313,0.707031 L 7.4140625,18 H 19 c 0.795231,0 1.55874,-0.316552 2.121094,-0.878906 C 21.683448,16.55874 22,15.795231 22,15 V 5 C 22,4.2047542 21.683487,3.4412548 21.121094,2.8789063 20.558748,2.3165904 19.795243,2 19,2 Z m 0,2 h 14 c 0.265556,0 0.519178,0.1051254 0.707031,0.2929687 C 19.894837,4.4807594 20,4.7343869 20,5 v 10 c 0,0.265568 -0.105124,0.519186 -0.292969,0.707031 C 19.519186,15.894876 19.265568,16 19,16 H 7 A 1.0001,1.0001 0 0 0 6.2929687,16.292969 L 4,18.585937 V 5 C 4,4.7343994 4.1051647,4.4807678 4.2929687,4.2929687 4.4807678,4.1051647 4.7343994,4 5,4 Z"
     id="path462" />
</svg>
